<mxfile host="app.diagrams.net" modified="2023-09-26T13:11:29.827Z" agent="Mozilla/5.0 (X11; Ubuntu; Linux x86_64; rv:109.0) Gecko/20100101 Firefox/117.0" etag="BFOB6qIp7NFxSVtNMtvM" version="21.8.2" type="device">
  <diagram name="Page-1" id="N9Ha9p4DTUPyzyGxqG5q">
    <mxGraphModel dx="2169" dy="1146" grid="1" gridSize="10" guides="1" tooltips="1" connect="1" arrows="1" fold="1" page="1" pageScale="1" pageWidth="850" pageHeight="1100" math="0" shadow="0">
      <root>
        <mxCell id="0" />
        <mxCell id="1" parent="0" />
        <mxCell id="hXg1HmJKmt0ExNEj_zQQ-1" value="&lt;div style=&quot;font-size: 13px;&quot;&gt;&lt;font style=&quot;font-size: 20px;&quot;&gt;Registered&lt;br&gt;User&lt;/font&gt;&lt;/div&gt;" style="shape=umlActor;verticalLabelPosition=bottom;verticalAlign=top;html=1;outlineConnect=0;" vertex="1" parent="1">
          <mxGeometry x="-61" y="400" width="60" height="120" as="geometry" />
        </mxCell>
        <mxCell id="hXg1HmJKmt0ExNEj_zQQ-2" value="create channel" style="rounded=1;whiteSpace=wrap;html=1;" vertex="1" parent="1">
          <mxGeometry x="160" y="300" width="100" height="30" as="geometry" />
        </mxCell>
        <mxCell id="hXg1HmJKmt0ExNEj_zQQ-3" value="join regular channel" style="rounded=1;whiteSpace=wrap;html=1;" vertex="1" parent="1">
          <mxGeometry x="160" y="420" width="100" height="30" as="geometry" />
        </mxCell>
        <mxCell id="hXg1HmJKmt0ExNEj_zQQ-8" value="search channel" style="rounded=1;whiteSpace=wrap;html=1;" vertex="1" parent="1">
          <mxGeometry x="160" y="680" width="100" height="30" as="geometry" />
        </mxCell>
        <mxCell id="hXg1HmJKmt0ExNEj_zQQ-9" value="leave channel" style="rounded=1;whiteSpace=wrap;html=1;" vertex="1" parent="1">
          <mxGeometry x="160" y="810" width="100" height="30" as="geometry" />
        </mxCell>
        <mxCell id="hXg1HmJKmt0ExNEj_zQQ-11" value="" style="endArrow=none;endFill=0;endSize=12;html=1;rounded=0;entryX=0;entryY=0.5;entryDx=0;entryDy=0;fillColor=#ffe6cc;strokeColor=#d79b00;" edge="1" parent="1" target="hXg1HmJKmt0ExNEj_zQQ-3">
          <mxGeometry width="160" relative="1" as="geometry">
            <mxPoint y="480" as="sourcePoint" />
            <mxPoint x="240" y="460" as="targetPoint" />
          </mxGeometry>
        </mxCell>
        <mxCell id="hXg1HmJKmt0ExNEj_zQQ-13" value="" style="endArrow=none;endFill=0;endSize=12;html=1;rounded=0;entryX=0;entryY=0.5;entryDx=0;entryDy=0;fillColor=#ffe6cc;strokeColor=#d79b00;" edge="1" parent="1" target="hXg1HmJKmt0ExNEj_zQQ-8">
          <mxGeometry width="160" relative="1" as="geometry">
            <mxPoint y="480" as="sourcePoint" />
            <mxPoint x="170" y="455" as="targetPoint" />
          </mxGeometry>
        </mxCell>
        <mxCell id="hXg1HmJKmt0ExNEj_zQQ-15" value="" style="endArrow=none;endFill=0;endSize=12;html=1;rounded=0;entryX=0;entryY=0.5;entryDx=0;entryDy=0;fillColor=#ffe6cc;strokeColor=#d79b00;" edge="1" parent="1" target="hXg1HmJKmt0ExNEj_zQQ-2">
          <mxGeometry width="160" relative="1" as="geometry">
            <mxPoint y="480" as="sourcePoint" />
            <mxPoint x="170" y="455" as="targetPoint" />
          </mxGeometry>
        </mxCell>
        <mxCell id="hXg1HmJKmt0ExNEj_zQQ-16" value="" style="endArrow=none;endFill=0;endSize=12;html=1;rounded=0;entryX=0;entryY=0.5;entryDx=0;entryDy=0;fillColor=#ffe6cc;strokeColor=#d79b00;" edge="1" parent="1" target="hXg1HmJKmt0ExNEj_zQQ-9">
          <mxGeometry width="160" relative="1" as="geometry">
            <mxPoint y="480" as="sourcePoint" />
            <mxPoint x="170" y="325" as="targetPoint" />
          </mxGeometry>
        </mxCell>
        <mxCell id="hXg1HmJKmt0ExNEj_zQQ-18" value="unavailable name" style="rounded=1;whiteSpace=wrap;html=1;" vertex="1" parent="1">
          <mxGeometry x="350" y="110" width="100" height="30" as="geometry" />
        </mxCell>
        <mxCell id="hXg1HmJKmt0ExNEj_zQQ-19" value="Extend" style="endArrow=open;endSize=12;dashed=1;html=1;rounded=0;exitX=0;exitY=0.5;exitDx=0;exitDy=0;fillColor=#d5e8d4;strokeColor=#82b366;" edge="1" parent="1" source="hXg1HmJKmt0ExNEj_zQQ-18">
          <mxGeometry width="160" relative="1" as="geometry">
            <mxPoint x="280" y="200" as="sourcePoint" />
            <mxPoint x="250" y="290" as="targetPoint" />
          </mxGeometry>
        </mxCell>
        <mxCell id="hXg1HmJKmt0ExNEj_zQQ-20" value="private message" style="rounded=1;whiteSpace=wrap;html=1;" vertex="1" parent="1">
          <mxGeometry x="350" y="190" width="100" height="30" as="geometry" />
        </mxCell>
        <mxCell id="hXg1HmJKmt0ExNEj_zQQ-21" value="regular channel" style="rounded=1;whiteSpace=wrap;html=1;" vertex="1" parent="1">
          <mxGeometry x="350" y="260" width="100" height="30" as="geometry" />
        </mxCell>
        <mxCell id="hXg1HmJKmt0ExNEj_zQQ-22" value="Extend" style="endArrow=open;endSize=12;dashed=1;html=1;rounded=0;exitX=0;exitY=0.5;exitDx=0;exitDy=0;fillColor=#d5e8d4;strokeColor=#82b366;" edge="1" parent="1" source="hXg1HmJKmt0ExNEj_zQQ-20">
          <mxGeometry width="160" relative="1" as="geometry">
            <mxPoint x="360" y="135" as="sourcePoint" />
            <mxPoint x="270" y="290" as="targetPoint" />
          </mxGeometry>
        </mxCell>
        <mxCell id="hXg1HmJKmt0ExNEj_zQQ-23" value="Extend" style="endArrow=open;endSize=12;dashed=1;html=1;rounded=0;exitX=0;exitY=0.5;exitDx=0;exitDy=0;fillColor=#d5e8d4;strokeColor=#82b366;" edge="1" parent="1" source="hXg1HmJKmt0ExNEj_zQQ-21">
          <mxGeometry width="160" relative="1" as="geometry">
            <mxPoint x="360" y="215" as="sourcePoint" />
            <mxPoint x="270" y="300" as="targetPoint" />
          </mxGeometry>
        </mxCell>
        <mxCell id="hXg1HmJKmt0ExNEj_zQQ-24" value="forbidden" style="rounded=1;whiteSpace=wrap;html=1;" vertex="1" parent="1">
          <mxGeometry x="350" y="350" width="100" height="30" as="geometry" />
        </mxCell>
        <mxCell id="hXg1HmJKmt0ExNEj_zQQ-25" value="send message" style="rounded=1;whiteSpace=wrap;html=1;" vertex="1" parent="1">
          <mxGeometry x="350" y="550" width="100" height="30" as="geometry" />
        </mxCell>
        <mxCell id="hXg1HmJKmt0ExNEj_zQQ-26" value="pong invite (general)" style="rounded=1;whiteSpace=wrap;html=1;" vertex="1" parent="1">
          <mxGeometry x="350" y="400" width="100" height="30" as="geometry" />
        </mxCell>
        <mxCell id="hXg1HmJKmt0ExNEj_zQQ-27" value="watch user profile" style="rounded=1;whiteSpace=wrap;html=1;" vertex="1" parent="1">
          <mxGeometry x="350" y="710" width="100" height="30" as="geometry" />
        </mxCell>
        <mxCell id="hXg1HmJKmt0ExNEj_zQQ-28" value="Extend" style="endArrow=open;endSize=12;dashed=1;html=1;rounded=0;exitX=0;exitY=0.5;exitDx=0;exitDy=0;fillColor=#d5e8d4;strokeColor=#82b366;" edge="1" parent="1" source="hXg1HmJKmt0ExNEj_zQQ-24">
          <mxGeometry width="160" relative="1" as="geometry">
            <mxPoint x="330" y="367.5" as="sourcePoint" />
            <mxPoint x="260" y="410" as="targetPoint" />
          </mxGeometry>
        </mxCell>
        <mxCell id="hXg1HmJKmt0ExNEj_zQQ-29" value="&lt;font color=&quot;#808080&quot;&gt;&lt;b style=&quot;font-size: 25px;&quot;&gt;Chat Usecase&lt;br&gt;&lt;/b&gt;&lt;/font&gt;" style="text;html=1;align=center;verticalAlign=middle;resizable=0;points=[];autosize=1;strokeColor=none;fillColor=none;" vertex="1" parent="1">
          <mxGeometry x="30" y="50" width="190" height="40" as="geometry" />
        </mxCell>
        <mxCell id="hXg1HmJKmt0ExNEj_zQQ-30" value="join privateMsg channel" style="rounded=1;whiteSpace=wrap;html=1;" vertex="1" parent="1">
          <mxGeometry x="160" y="550" width="100" height="30" as="geometry" />
        </mxCell>
        <mxCell id="hXg1HmJKmt0ExNEj_zQQ-31" value="" style="endArrow=none;endFill=0;endSize=12;html=1;rounded=0;entryX=0;entryY=0.5;entryDx=0;entryDy=0;fillColor=#ffe6cc;strokeColor=#d79b00;" edge="1" parent="1" target="hXg1HmJKmt0ExNEj_zQQ-30">
          <mxGeometry width="160" relative="1" as="geometry">
            <mxPoint y="480" as="sourcePoint" />
            <mxPoint x="170" y="445" as="targetPoint" />
          </mxGeometry>
        </mxCell>
        <mxCell id="hXg1HmJKmt0ExNEj_zQQ-33" value="pong invite (private)" style="rounded=1;whiteSpace=wrap;html=1;" vertex="1" parent="1">
          <mxGeometry x="350" y="650" width="100" height="30" as="geometry" />
        </mxCell>
        <mxCell id="hXg1HmJKmt0ExNEj_zQQ-34" value="watch channel profile" style="rounded=1;whiteSpace=wrap;html=1;" vertex="1" parent="1">
          <mxGeometry x="350" y="460" width="100" height="30" as="geometry" />
        </mxCell>
        <mxCell id="hXg1HmJKmt0ExNEj_zQQ-36" value="Extend" style="endArrow=open;endSize=12;dashed=1;html=1;rounded=0;exitX=0;exitY=0.5;exitDx=0;exitDy=0;fillColor=#d5e8d4;strokeColor=#82b366;" edge="1" parent="1" source="hXg1HmJKmt0ExNEj_zQQ-26">
          <mxGeometry width="160" relative="1" as="geometry">
            <mxPoint x="360" y="375" as="sourcePoint" />
            <mxPoint x="270" y="430" as="targetPoint" />
          </mxGeometry>
        </mxCell>
        <mxCell id="hXg1HmJKmt0ExNEj_zQQ-37" value="Extend" style="endArrow=open;endSize=12;dashed=1;html=1;rounded=0;exitX=0;exitY=0.5;exitDx=0;exitDy=0;fillColor=#d5e8d4;strokeColor=#82b366;" edge="1" parent="1" source="hXg1HmJKmt0ExNEj_zQQ-34">
          <mxGeometry width="160" relative="1" as="geometry">
            <mxPoint x="370" y="385" as="sourcePoint" />
            <mxPoint x="270" y="450" as="targetPoint" />
          </mxGeometry>
        </mxCell>
        <mxCell id="hXg1HmJKmt0ExNEj_zQQ-38" value="Extend" style="endArrow=open;endSize=12;dashed=1;html=1;rounded=0;exitX=0;exitY=0.25;exitDx=0;exitDy=0;fillColor=#d5e8d4;strokeColor=#82b366;" edge="1" parent="1" source="hXg1HmJKmt0ExNEj_zQQ-25">
          <mxGeometry width="160" relative="1" as="geometry">
            <mxPoint x="380" y="395" as="sourcePoint" />
            <mxPoint x="250" y="460" as="targetPoint" />
          </mxGeometry>
        </mxCell>
        <mxCell id="hXg1HmJKmt0ExNEj_zQQ-39" value="Extend" style="endArrow=open;endSize=12;dashed=1;html=1;rounded=0;exitX=0;exitY=0.5;exitDx=0;exitDy=0;entryX=1;entryY=0.5;entryDx=0;entryDy=0;fillColor=#d5e8d4;strokeColor=#82b366;" edge="1" parent="1" source="hXg1HmJKmt0ExNEj_zQQ-25" target="hXg1HmJKmt0ExNEj_zQQ-30">
          <mxGeometry width="160" relative="1" as="geometry">
            <mxPoint x="390" y="405" as="sourcePoint" />
            <mxPoint x="286" y="460" as="targetPoint" />
          </mxGeometry>
        </mxCell>
        <mxCell id="hXg1HmJKmt0ExNEj_zQQ-40" value="Extend" style="endArrow=open;endSize=12;dashed=1;html=1;rounded=0;exitX=0;exitY=0.25;exitDx=0;exitDy=0;entryX=1;entryY=1;entryDx=0;entryDy=0;fillColor=#d5e8d4;strokeColor=#82b366;" edge="1" parent="1" source="hXg1HmJKmt0ExNEj_zQQ-33" target="hXg1HmJKmt0ExNEj_zQQ-30">
          <mxGeometry width="160" relative="1" as="geometry">
            <mxPoint x="360" y="575" as="sourcePoint" />
            <mxPoint x="270" y="575" as="targetPoint" />
          </mxGeometry>
        </mxCell>
        <mxCell id="hXg1HmJKmt0ExNEj_zQQ-41" value="Extend" style="endArrow=open;endSize=12;dashed=1;html=1;rounded=0;exitX=0;exitY=0.5;exitDx=0;exitDy=0;entryX=1;entryY=1;entryDx=0;entryDy=0;fillColor=#d5e8d4;strokeColor=#82b366;" edge="1" parent="1" source="hXg1HmJKmt0ExNEj_zQQ-27">
          <mxGeometry width="160" relative="1" as="geometry">
            <mxPoint x="320" y="715" as="sourcePoint" />
            <mxPoint x="240" y="580" as="targetPoint" />
          </mxGeometry>
        </mxCell>
        <mxCell id="hXg1HmJKmt0ExNEj_zQQ-42" value="Include" style="endArrow=open;endSize=12;dashed=1;html=1;rounded=0;exitX=1;exitY=0.5;exitDx=0;exitDy=0;fillColor=#1ba1e2;strokeColor=#006EAF;" edge="1" parent="1" source="hXg1HmJKmt0ExNEj_zQQ-21">
          <mxGeometry width="160" relative="1" as="geometry">
            <mxPoint x="360" y="285" as="sourcePoint" />
            <mxPoint x="570" y="275" as="targetPoint" />
          </mxGeometry>
        </mxCell>
        <mxCell id="hXg1HmJKmt0ExNEj_zQQ-43" value="get channel master role" style="rounded=1;whiteSpace=wrap;html=1;" vertex="1" parent="1">
          <mxGeometry x="570" y="260" width="100" height="30" as="geometry" />
        </mxCell>
        <mxCell id="hXg1HmJKmt0ExNEj_zQQ-44" value="can&#39;t chat due to penalty" style="rounded=1;whiteSpace=wrap;html=1;" vertex="1" parent="1">
          <mxGeometry x="560" y="550" width="100" height="30" as="geometry" />
        </mxCell>
        <mxCell id="hXg1HmJKmt0ExNEj_zQQ-46" value="Extend" style="endArrow=open;endSize=12;dashed=1;html=1;rounded=0;exitX=0;exitY=0.5;exitDx=0;exitDy=0;entryX=1;entryY=0.5;entryDx=0;entryDy=0;fillColor=#d5e8d4;strokeColor=#82b366;" edge="1" parent="1" source="hXg1HmJKmt0ExNEj_zQQ-44" target="hXg1HmJKmt0ExNEj_zQQ-25">
          <mxGeometry width="160" relative="1" as="geometry">
            <mxPoint x="360" y="575" as="sourcePoint" />
            <mxPoint x="460" y="570" as="targetPoint" />
          </mxGeometry>
        </mxCell>
        <mxCell id="hXg1HmJKmt0ExNEj_zQQ-47" value="manage roles" style="rounded=1;whiteSpace=wrap;html=1;" vertex="1" parent="1">
          <mxGeometry x="760" y="190" width="100" height="30" as="geometry" />
        </mxCell>
        <mxCell id="hXg1HmJKmt0ExNEj_zQQ-48" value="channel settings" style="rounded=1;whiteSpace=wrap;html=1;" vertex="1" parent="1">
          <mxGeometry x="760" y="390" width="100" height="30" as="geometry" />
        </mxCell>
        <mxCell id="hXg1HmJKmt0ExNEj_zQQ-49" value="invite user" style="rounded=1;whiteSpace=wrap;html=1;" vertex="1" parent="1">
          <mxGeometry x="760" y="240" width="100" height="30" as="geometry" />
        </mxCell>
        <mxCell id="hXg1HmJKmt0ExNEj_zQQ-50" value="Extend" style="endArrow=open;endSize=12;dashed=1;html=1;rounded=0;exitX=0;exitY=0.5;exitDx=0;exitDy=0;fillColor=#d5e8d4;strokeColor=#82b366;" edge="1" parent="1" source="hXg1HmJKmt0ExNEj_zQQ-47">
          <mxGeometry width="160" relative="1" as="geometry">
            <mxPoint x="740" y="207.5" as="sourcePoint" />
            <mxPoint x="670" y="250" as="targetPoint" />
          </mxGeometry>
        </mxCell>
        <mxCell id="hXg1HmJKmt0ExNEj_zQQ-51" value="action&lt;br&gt;kick / mute / ban" style="rounded=1;whiteSpace=wrap;html=1;" vertex="1" parent="1">
          <mxGeometry x="760" y="300" width="100" height="30" as="geometry" />
        </mxCell>
        <mxCell id="hXg1HmJKmt0ExNEj_zQQ-52" value="Extend" style="endArrow=open;endSize=12;dashed=1;html=1;rounded=0;exitX=0;exitY=0.5;exitDx=0;exitDy=0;fillColor=#d5e8d4;strokeColor=#82b366;" edge="1" parent="1" source="hXg1HmJKmt0ExNEj_zQQ-49">
          <mxGeometry width="160" relative="1" as="geometry">
            <mxPoint x="770" y="215" as="sourcePoint" />
            <mxPoint x="680" y="270" as="targetPoint" />
          </mxGeometry>
        </mxCell>
        <mxCell id="hXg1HmJKmt0ExNEj_zQQ-53" value="Extend" style="endArrow=open;endSize=12;dashed=1;html=1;rounded=0;exitX=0;exitY=0.5;exitDx=0;exitDy=0;fillColor=#d5e8d4;strokeColor=#82b366;" edge="1" parent="1" source="hXg1HmJKmt0ExNEj_zQQ-51">
          <mxGeometry width="160" relative="1" as="geometry">
            <mxPoint x="780" y="225" as="sourcePoint" />
            <mxPoint x="680" y="290" as="targetPoint" />
          </mxGeometry>
        </mxCell>
        <mxCell id="hXg1HmJKmt0ExNEj_zQQ-54" value="Extend" style="endArrow=open;endSize=12;dashed=1;html=1;rounded=0;exitX=0;exitY=0.25;exitDx=0;exitDy=0;fillColor=#d5e8d4;strokeColor=#82b366;" edge="1" parent="1" source="hXg1HmJKmt0ExNEj_zQQ-48">
          <mxGeometry width="160" relative="1" as="geometry">
            <mxPoint x="790" y="235" as="sourcePoint" />
            <mxPoint x="660" y="300" as="targetPoint" />
          </mxGeometry>
        </mxCell>
        <mxCell id="hXg1HmJKmt0ExNEj_zQQ-57" value="" style="endArrow=none;html=1;rounded=0;" edge="1" parent="1">
          <mxGeometry width="50" height="50" relative="1" as="geometry">
            <mxPoint x="20" y="880" as="sourcePoint" />
            <mxPoint x="20" y="40" as="targetPoint" />
          </mxGeometry>
        </mxCell>
        <mxCell id="hXg1HmJKmt0ExNEj_zQQ-58" value="" style="endArrow=none;html=1;rounded=0;" edge="1" parent="1">
          <mxGeometry width="50" height="50" relative="1" as="geometry">
            <mxPoint x="20" y="40" as="sourcePoint" />
            <mxPoint x="920" y="40" as="targetPoint" />
          </mxGeometry>
        </mxCell>
        <mxCell id="hXg1HmJKmt0ExNEj_zQQ-59" value="" style="endArrow=none;html=1;rounded=0;" edge="1" parent="1">
          <mxGeometry width="50" height="50" relative="1" as="geometry">
            <mxPoint x="20" y="880" as="sourcePoint" />
            <mxPoint x="920" y="880" as="targetPoint" />
          </mxGeometry>
        </mxCell>
        <mxCell id="hXg1HmJKmt0ExNEj_zQQ-61" value="" style="endArrow=none;html=1;rounded=0;" edge="1" parent="1">
          <mxGeometry width="50" height="50" relative="1" as="geometry">
            <mxPoint x="920" y="880" as="sourcePoint" />
            <mxPoint x="920" y="40" as="targetPoint" />
          </mxGeometry>
        </mxCell>
        <mxCell id="hXg1HmJKmt0ExNEj_zQQ-62" value="" style="swimlane;startSize=0;" vertex="1" parent="1">
          <mxGeometry x="-100" width="1140" height="920" as="geometry" />
        </mxCell>
      </root>
    </mxGraphModel>
  </diagram>
</mxfile>
